<svg width="46" height="45" viewBox="0 0 46 45" fill="none" xmlns="http://www.w3.org/2000/svg">
<path fill-rule="evenodd" clip-rule="evenodd" d="M20.6183 0.132896C16.115 0.685337 11.9421 2.70156 8.75686 5.86386C5.36659 9.22972 3.27336 13.7283 2.88895 18.4745L2.8251 19.2637L2.29504 19.5886C1.23023 20.2411 0.396844 21.4163 0.1374 22.6311C-0.0471975 23.4961 -0.0452737 28.9827 0.140056 29.8508C0.513557 31.6009 2.01993 33.1159 3.73856 33.4701C5.37841 33.8081 6.79106 33.2093 7.50407 31.8738L7.74684 31.4191V26.2348V21.0505L7.50306 20.5922C7.24517 20.107 6.62057 19.4764 6.16791 19.244C6.01868 19.1673 5.70299 19.0562 5.46654 18.9971L5.0366 18.8896L5.09111 18.4694C5.46333 15.5983 5.8863 14.1436 6.97822 11.9792C9.5307 6.91954 14.4109 3.36251 20.1197 2.40069C21.2999 2.20187 23.5855 2.13411 24.7866 2.26235C30.3 2.85081 35.0577 5.72516 38.0457 10.2728C39.4819 12.4585 40.4539 15.0224 40.77 17.458C40.9805 19.0805 41.0123 18.8775 40.5293 18.9982C40.2953 19.0568 39.9816 19.1673 39.8324 19.244C39.3798 19.4764 38.7552 20.107 38.4973 20.5922L38.2535 21.0505V26.2348V31.4191L38.4973 31.8775C38.7552 32.3626 39.3798 32.9933 39.8324 33.2256C39.9816 33.3023 40.2956 33.4129 40.5299 33.4715L40.956 33.578V34.9579C40.956 36.4807 40.8434 37.0986 40.4262 37.8662C40.0687 38.524 39.2623 39.3053 38.5965 39.639C37.6687 40.104 37.099 40.1931 35.0471 40.1944L33.2149 40.1955L32.9491 39.6905C32.6219 39.0687 31.9147 38.4392 31.2452 38.1734C30.7714 37.9853 30.5993 37.9734 28.3594 37.9734C26.0657 37.9734 25.9572 37.9814 25.4279 38.19C24.6627 38.4913 23.8382 39.3148 23.5561 40.0595C23.2604 40.8396 23.3138 42.0284 23.6761 42.7278C24.0092 43.371 24.5817 43.925 25.2496 44.2506L25.7943 44.5161H28.3594H30.9246L31.4467 44.2616C32.0508 43.967 32.6905 43.3595 32.9935 42.7924L33.2049 42.3969L35.4085 42.3555C37.881 42.3089 38.2282 42.2487 39.4444 41.656C40.7729 41.0085 41.8321 39.9593 42.4777 38.6513C43.0321 37.528 43.0877 37.2295 43.132 35.1328L43.1727 33.2074L43.6942 32.8878C44.7809 32.222 45.5999 31.0704 45.8629 29.8385C46.0457 28.9823 46.0457 23.4873 45.8629 22.6311C45.6039 21.4184 44.7702 20.2411 43.7101 19.5915L43.1848 19.2696L43.0756 18.1591C42.661 13.9444 41.1098 10.3029 38.3206 6.99749C35.5538 3.7184 31.3647 1.25979 27.0924 0.407571C24.9781 -0.0141732 22.6295 -0.113765 20.6183 0.132896ZM15.258 10.638C13.4307 10.8826 11.9524 12.1529 11.3964 13.9563C11.2411 14.4597 11.2281 14.9211 11.2281 19.9137C11.2281 25.2646 11.2304 25.3326 11.4332 25.9729C11.9765 27.688 13.4481 28.935 15.2414 29.1997L15.9461 29.3038V30.595C15.9461 32.117 16.0746 32.6675 16.5525 33.1927C17.2175 33.9234 18.2933 34.157 19.1525 33.7572C19.4327 33.6266 20.2687 32.8802 21.7634 31.4257L23.9621 29.2861L27.1227 29.2832C28.861 29.2816 30.5512 29.2389 30.8788 29.1881C31.5961 29.0771 32.6 28.6038 33.1854 28.1008C33.7702 27.5983 34.3208 26.7503 34.5671 25.9729C34.77 25.3326 34.7723 25.2646 34.7723 19.9137C34.7723 14.9211 34.7592 14.4597 34.604 13.9563C34.1379 12.4448 33.0205 11.2955 31.5338 10.7984L30.9246 10.5947L23.3666 10.5795C19.2097 10.5712 15.5608 10.5975 15.258 10.638ZM31.062 12.9642C31.6764 13.2478 32.031 13.5871 32.317 14.1651L32.5736 14.6839V19.9137C32.5736 25.0289 32.5694 25.1524 32.3819 25.5527C32.1063 26.1414 31.7463 26.527 31.2104 26.8077L30.7413 27.0534L26.8845 27.0988L23.0276 27.1443L20.6674 29.4409C19.3691 30.7039 18.2704 31.7374 18.2258 31.7374C18.1812 31.7374 18.1448 30.8759 18.1448 29.8229C18.1448 27.181 18.1242 27.1501 16.3125 27.0803C15.4728 27.0478 15.1825 27.0003 14.8819 26.8462C14.2824 26.5388 13.9588 26.2191 13.6834 25.6622L13.4268 25.1434V19.9591C13.4268 15.934 13.4534 14.7002 13.5459 14.441C13.835 13.6316 14.5736 12.9911 15.4099 12.8247C15.6292 12.781 19.1479 12.7517 23.2292 12.7597C30.5505 12.7737 30.6552 12.7765 31.062 12.9642ZM17.2095 18.5483C16.5496 18.7458 16.0417 19.4188 16.0417 20.0956C16.0417 20.8279 16.6351 21.5318 17.3813 21.6845C17.9883 21.8086 18.8076 21.3975 19.11 20.8169C19.2825 20.4857 19.2825 19.7054 19.11 19.3742C18.9244 19.018 18.479 18.6652 18.0732 18.5534C17.6828 18.4457 17.5549 18.445 17.2095 18.5483ZM22.4682 18.5812C22.0175 18.7434 21.5737 19.2221 21.4423 19.6879C21.1219 20.824 22.2628 21.9808 23.3768 21.6495C24.2606 21.3865 24.7894 20.5086 24.558 19.6879C24.3714 19.0262 23.6615 18.4722 23.0002 18.4722C22.8742 18.4722 22.6348 18.5213 22.4682 18.5812ZM27.824 18.5869C27.4197 18.7348 27.0706 19.0319 26.885 19.3861C26.7171 19.7064 26.7201 20.4899 26.8904 20.8169C27.1928 21.3975 28.0121 21.8086 28.6191 21.6845C29.346 21.5357 29.9652 20.7996 29.9606 20.0896C29.9538 19.0207 28.8194 18.2229 27.824 18.5869ZM5.31208 21.3315L5.59397 21.567V26.2305V30.894L5.35248 31.1338C4.8346 31.6479 3.59913 31.3377 2.86458 30.5094C2.23787 29.8025 2.20434 29.5855 2.20434 26.2348C2.20434 22.8933 2.23906 22.6658 2.8557 21.9703C3.60471 21.1255 4.71871 20.8357 5.31208 21.3315ZM42.3905 21.353C42.9168 21.6195 43.4941 22.3026 43.659 22.8539C43.7681 23.2188 43.796 23.9055 43.796 26.2348C43.796 29.5855 43.7625 29.8025 43.1357 30.5094C42.4012 31.3377 41.1657 31.6479 40.6478 31.1338L40.4064 30.894V26.2348V21.5756L40.6583 21.3253C40.8906 21.0944 40.9531 21.0784 41.4626 21.1189C41.7664 21.143 42.1839 21.2484 42.3905 21.353ZM30.8421 40.5051C31.0962 40.7575 31.1536 40.8839 31.1536 41.1918C31.1536 41.6728 30.9492 42.0651 30.6069 42.2408C30.2232 42.4378 26.5057 42.443 26.124 42.247C25.7513 42.0556 25.5653 41.7192 25.5653 41.2359C25.5653 40.8778 25.6121 40.7679 25.8768 40.5051L26.1882 40.1959H28.3594H30.5306L30.8421 40.5051Z" fill="#2E86AB"/>
</svg>
