<svg width="37" height="45" viewBox="0 0 37 45" fill="none" xmlns="http://www.w3.org/2000/svg">
<path fill-rule="evenodd" clip-rule="evenodd" d="M17.9611 0.124424C17.6144 0.266644 1.44464 7.70233 0.597747 8.10891C-0.0603401 8.42488 -0.0230899 7.85635 0.0211172 16.9122C0.0470955 22.2141 0.0949133 25.2574 0.159639 25.7184C0.214061 26.1059 0.303004 26.7399 0.357338 27.1274C1.31607 33.9649 5.77605 38.7827 15.8257 43.8372C17.6391 44.7493 18.2134 45 18.4895 45C18.7655 45 19.3398 44.7493 21.1533 43.8372C31.2029 38.7827 35.6629 33.9649 36.6216 27.1274C36.6759 26.7399 36.7649 26.1059 36.8193 25.7184C36.884 25.2574 36.9318 22.2141 36.9578 16.9122C37.0023 7.80228 37.0465 8.43228 36.338 8.08883C34.3525 7.12623 18.8217 0.0417333 18.6215 0.00721305C18.4671 -0.0193817 18.1928 0.0293166 17.9611 0.124424ZM26.9464 5.69971L35.2212 9.50496L35.2191 16.0706C35.2169 22.8656 35.1533 25.055 34.9099 26.6954C34.6341 28.5549 34.2902 29.7239 33.591 31.1782C32.7493 32.9293 31.8538 34.1405 30.2328 35.7203C27.8038 38.0877 24.7428 40.103 20.0526 42.4228L18.4895 43.1959L16.9264 42.4228C12.2361 40.103 9.17516 38.0877 6.74615 35.7203C5.12519 34.1405 4.22969 32.9293 3.3879 31.1782C2.68878 29.7239 2.34481 28.5549 2.069 26.6954C1.82568 25.0549 1.76201 22.8656 1.75981 16.0706L1.7577 9.50496L10.1016 5.66194C14.6907 3.54836 18.4963 1.836 18.5585 1.85669C18.6206 1.87738 22.3952 3.60675 26.9464 5.69971ZM18.0932 4.70699C17.7535 4.8559 5.67012 10.4212 5.08063 10.7001C4.65811 10.9 4.44447 11.0602 4.34593 11.2508C4.22185 11.4908 4.21155 12.2348 4.24994 18.2227C4.29256 24.8825 4.32162 25.5668 4.62746 27.1274C5.38576 30.996 7.67502 33.9518 12.2549 36.9752C14.2966 38.323 18.0637 40.3807 18.4895 40.3807C18.7043 40.3807 20.549 39.4599 22.1271 38.5651C26.654 35.9979 29.5886 33.4236 31.0616 30.7279C31.8786 29.2329 32.3071 27.8141 32.5877 25.6744C32.7358 24.5463 32.8055 11.6536 32.6654 11.3153C32.6067 11.1736 32.4345 10.9827 32.2828 10.8912C31.8479 10.6287 29.8034 9.73515 29.6378 9.73515C29.4103 9.73515 28.9851 9.98049 28.8834 10.1706C28.726 10.4647 28.7768 10.9405 28.9909 11.1771C29.0999 11.2975 29.5853 11.5756 30.0696 11.795L30.9502 12.194L30.9764 17.3711C31.0124 24.4954 30.8935 26.233 30.2337 28.2282C29.2582 31.1774 26.8254 33.7111 22.4311 36.3538C21.4672 36.9336 19.5182 38.003 19.4256 38.003C19.4003 38.003 19.3675 37.1277 19.3528 36.0579L19.3261 34.1127L19.079 33.9004C18.7439 33.6124 18.2351 33.6124 17.9 33.9004L17.6529 34.1127L17.6261 36.0579C17.6114 37.1277 17.5776 38.003 17.5511 38.003C17.4469 38.003 15.5677 36.9651 14.4996 36.3177C10.073 33.6345 7.72214 31.1819 6.74526 28.2282C6.08542 26.233 5.96653 24.4953 6.00255 17.3714L6.0287 12.1945L12.2557 9.33033L18.4829 6.46612L20.1408 7.22002C21.0527 7.6347 21.8845 7.97391 21.9893 7.97391C22.3209 7.97391 22.6152 7.78335 22.7623 7.47328C22.9337 7.11205 22.8736 6.74686 22.6018 6.49764C22.3255 6.24447 18.9464 4.70461 18.5775 4.66375C18.408 4.64508 18.1901 4.66446 18.0932 4.70699ZM25.3515 8.31938C24.8417 8.82926 25.1183 9.64912 25.8463 9.7857C26.1949 9.85104 26.6156 9.6367 26.7598 9.3202C27.1628 8.43571 26.036 7.63488 25.3515 8.31938ZM18.1339 11.1244C17.8088 11.2911 9.95098 17.9608 9.61767 18.3528C9.32381 18.6985 9.34864 19.1889 9.67649 19.5168C9.90854 19.7489 9.9907 19.7742 10.5098 19.7742H11.0857L11.111 23.9645L11.1363 28.1547L11.4239 28.4116L11.7115 28.6685H18.4895H25.2674L25.555 28.4116L25.8426 28.1546L25.8671 23.9645L25.8917 19.7742H26.4683C26.9883 19.7742 27.0703 19.7489 27.3024 19.5168C27.6303 19.1889 27.6551 18.6985 27.3613 18.3528C27.1383 18.0906 19.3237 11.4067 19.0039 11.2046C18.6496 10.9809 18.4496 10.9624 18.1339 11.1244ZM21.4908 15.6022C23.1094 16.9886 24.4469 18.1576 24.463 18.2C24.4792 18.2425 24.4558 18.2772 24.4111 18.2772C24.1581 18.2772 24.1254 18.7959 24.1254 22.8165V26.9072H18.4895H12.8535V22.8165C12.8535 18.7959 12.8208 18.2772 12.5678 18.2772C12.5232 18.2772 12.4998 18.2425 12.516 18.2C12.5536 18.1009 18.4115 13.0815 18.4895 13.0815C18.5216 13.0815 19.8722 14.2158 21.4908 15.6022ZM21.2634 19.3214C21.1181 19.4151 20.326 20.1696 19.5032 20.998C18.6803 21.8263 17.9703 22.5041 17.9255 22.5041C17.8807 22.5041 17.5963 22.2664 17.2937 21.9758C16.8107 21.512 16.7009 21.4474 16.3956 21.4474C15.8035 21.4474 15.4432 21.9459 15.6015 22.5461C15.6881 22.8744 17.1891 24.4118 17.5944 24.5872C18.1193 24.8144 18.3045 24.6797 20.4984 22.473C22.4132 20.5469 22.5403 20.3991 22.5403 20.098C22.5403 19.4313 21.7954 18.9782 21.2634 19.3214ZM17.8971 30.8284C17.6224 31.103 17.5926 31.1762 17.639 31.4621C17.7144 31.9269 18.0507 32.231 18.4895 32.231C18.9282 32.231 19.2645 31.9269 19.34 31.4621C19.3863 31.1762 19.3565 31.103 19.0819 30.8284C18.8559 30.6024 18.6945 30.5178 18.4895 30.5178C18.2845 30.5178 18.123 30.6024 17.8971 30.8284Z" fill="#2E86AB"/>
</svg>
