<svg width="46" height="42" viewBox="0 0 46 42" fill="none" xmlns="http://www.w3.org/2000/svg">
<path fill-rule="evenodd" clip-rule="evenodd" d="M2.99229 0.0771915C2.37491 0.22294 1.47339 0.753151 1.03445 1.22859C0.811408 1.47029 0.487322 1.96637 0.314449 2.33079L0 2.99355V17.4347V31.8758L0.37108 32.6254C0.817966 33.5285 1.39321 34.091 2.31689 34.5279L2.98056 34.8419L10.2084 34.8698L17.4363 34.8977V35.6746V36.4515L16.5497 36.5019C14.9749 36.5916 13.7863 37.3478 13.1155 38.6868C12.9237 39.0696 12.7667 39.4439 12.7667 39.5184C12.7667 39.624 12.546 39.6539 11.7687 39.6539C10.8415 39.6539 10.7534 39.6712 10.5268 39.8975C10.2042 40.2196 10.2042 40.6756 10.5268 40.9978L10.7707 41.2414H23H35.2293L35.4732 40.9978C35.7959 40.6756 35.7959 40.2196 35.4732 39.8975C35.2466 39.6712 35.1585 39.6539 34.2313 39.6539C33.454 39.6539 33.2333 39.624 33.2333 39.5184C33.2333 39.4439 33.0763 39.0696 32.8845 38.6868C32.2137 37.3478 31.0251 36.5916 29.4503 36.5019L28.5637 36.4515V35.6746V34.8977L35.7968 34.8698L43.03 34.8419L43.7807 34.4714C44.6848 34.0251 45.248 33.4504 45.6856 32.5282L46 31.8655V17.4295V2.99355L45.6856 2.33079C45.248 1.40847 44.6848 0.833913 43.7806 0.387639L43.0298 0.0170666L23.2039 0.00158904C11.4612 -0.00753884 3.2207 0.0233171 2.99229 0.0771915ZM42.8092 1.67556C43.355 1.83659 44.178 2.6585 44.3392 3.20349C44.431 3.51394 44.46 6.40956 44.46 15.2831V26.9543H23H1.53996V15.2831C1.53996 6.40956 1.56897 3.51394 1.66077 3.20349C1.81029 2.69808 2.64197 1.83808 3.12959 1.68459C3.65526 1.5192 42.2493 1.51037 42.8092 1.67556ZM12.7667 3.28485C9.99313 3.87231 7.74996 5.77517 6.82737 8.32275C5.74901 11.3009 6.4409 14.4689 8.65197 16.677C12.2202 20.2404 18.1503 19.6129 20.9179 15.3793C21.801 14.0284 22.1511 12.8078 22.1511 11.0797C22.1511 9.35479 21.7997 8.1268 20.9245 6.79283C19.7973 5.07481 18.2059 3.9365 16.1462 3.37524C15.3732 3.1646 13.563 3.11618 12.7667 3.28485ZM15.5983 4.87776C16.7197 5.11082 17.8565 5.74114 18.7416 6.6204C21.2364 9.09921 21.2303 13.0453 18.7279 15.5444C16.2254 18.0434 12.2739 18.0495 9.79164 15.5581C7.27525 13.0322 7.27188 9.12144 9.78399 6.61276C11.3357 5.0633 13.452 4.43179 15.5983 4.87776ZM29.5026 4.86804C29.1036 5.04336 28.6858 5.54946 28.611 5.94811C28.578 6.12392 28.5651 7.12402 28.5822 8.17065C28.6164 10.2532 28.638 10.3339 29.2974 10.8255C29.5666 11.0262 29.6733 11.0301 34.9222 11.0301C40.1712 11.0301 40.2779 11.0262 40.5471 10.8255C41.2242 10.3207 41.2311 10.2911 41.2311 7.90475C41.2311 5.5184 41.2243 5.48894 40.5472 4.98403C40.2792 4.7841 40.1523 4.77895 35.0392 4.75722C30.8399 4.73926 29.7457 4.76119 29.5026 4.86804ZM13.7061 6.56087C13.572 6.69481 13.4622 6.8734 13.4622 6.95773C13.4622 7.04207 13.3892 7.11102 13.2999 7.11102C12.5422 7.11102 11.4276 7.98551 11.1986 8.7596C10.9234 9.68985 11.1174 10.4315 11.8195 11.1326C12.4473 11.7596 12.8205 11.8734 14.2482 11.8734C15.2951 11.8734 15.3729 11.8874 15.6027 12.117C15.7565 12.2705 15.8467 12.4739 15.8467 12.6671C15.8467 12.8604 15.7565 13.0638 15.6027 13.2173C15.3654 13.4544 15.319 13.4609 13.8596 13.4609C12.4002 13.4609 12.3538 13.4673 12.1165 13.7044C11.7938 14.0266 11.7938 14.4826 12.1165 14.8047C12.3132 15.0012 12.462 15.0487 12.8865 15.0505C13.3813 15.0525 13.4214 15.0716 13.5616 15.3728C13.8482 15.9885 14.6659 15.9885 14.9525 15.3728C15.0345 15.1966 15.1634 15.0517 15.239 15.0505C15.9852 15.0388 17.0905 14.16 17.3155 13.3997C17.5907 12.4695 17.3966 11.7278 16.6945 11.0267C16.0667 10.3997 15.6936 10.2859 14.2659 10.2859C13.219 10.2859 13.1411 10.2719 12.9113 10.0424C12.5886 9.72021 12.5886 9.26421 12.9113 8.94205C13.1486 8.70493 13.195 8.69848 14.6544 8.69848C16.1138 8.69848 16.1602 8.69203 16.3976 8.4549C16.5514 8.30142 16.6415 8.09802 16.6415 7.90475C16.6415 7.39815 16.2657 7.11102 15.6027 7.11102C15.1721 7.11102 15.0518 7.07759 15.0518 6.95773C15.0518 6.69054 14.5886 6.31729 14.257 6.31729C14.0635 6.31729 13.8598 6.40728 13.7061 6.56087ZM39.6911 7.90475V9.49221H34.9222H30.1534V7.90475V6.31729H34.9222H39.6911V7.90475ZM32.7817 12.9107C32.6279 13.0642 32.5378 13.2676 32.5378 13.4609C32.5378 13.6541 32.6279 13.8575 32.7817 14.011L33.0255 14.2546H36.9093H40.7931L41.0369 14.011C41.1907 13.8575 41.2808 13.6541 41.2808 13.4609C41.2808 13.2676 41.1907 13.0642 41.0369 12.9107L40.7931 12.6671H36.9093H33.0255L32.7817 12.9107ZM28.8076 16.0856C28.6538 16.2391 28.5637 16.4425 28.5637 16.6358C28.5637 16.829 28.6538 17.0324 28.8076 17.1859L29.0514 17.4295H32.5378H36.0242L36.268 17.1859C36.4218 17.0324 36.5119 16.829 36.5119 16.6358C36.5119 16.4425 36.4218 16.2391 36.268 16.0856L36.0242 15.842H32.5378H29.0514L28.8076 16.0856ZM38.3454 16.0856C38.1916 16.2391 38.1015 16.4425 38.1015 16.6358C38.1015 16.829 38.1916 17.0324 38.3454 17.1859C38.575 17.4152 38.6537 17.4295 39.6911 17.4295C40.7286 17.4295 40.8073 17.4152 41.0369 17.1859C41.1907 17.0324 41.2808 16.829 41.2808 16.6358C41.2808 16.4425 41.1907 16.2391 41.0369 16.0856C40.8073 15.8563 40.7286 15.842 39.6911 15.842C38.6537 15.842 38.575 15.8563 38.3454 16.0856ZM28.8076 19.2605C28.6538 19.414 28.5637 19.6174 28.5637 19.8107C28.5637 20.004 28.6538 20.2074 28.8076 20.3608C29.045 20.598 29.0914 20.6044 30.5508 20.6044C32.0101 20.6044 32.0565 20.598 32.2939 20.3608C32.4477 20.2074 32.5378 20.004 32.5378 19.8107C32.5378 19.6174 32.4477 19.414 32.2939 19.2605C32.0565 19.0234 32.0101 19.017 30.5508 19.017C29.0914 19.017 29.045 19.0234 28.8076 19.2605ZM34.3713 19.2605C34.2175 19.414 34.1274 19.6174 34.1274 19.8107C34.1274 20.004 34.2175 20.2074 34.3713 20.3608L34.6152 20.6044H37.7041H40.7931L41.0369 20.3608C41.1907 20.2074 41.2808 20.004 41.2808 19.8107C41.2808 19.6174 41.1907 19.414 41.0369 19.2605L40.7931 19.017H37.7041H34.6152L34.3713 19.2605ZM5.6581 20.7431C5.25433 20.9199 4.84113 21.4253 4.76373 21.837C4.72926 22.0205 4.71634 22.6635 4.73502 23.2658C4.77168 24.4491 4.85673 24.6681 5.45294 25.1126C5.72506 25.3155 5.79709 25.3172 14.257 25.3172C22.7169 25.3172 22.789 25.3155 23.0611 25.1126C23.696 24.6392 23.7451 24.4862 23.7451 22.9856C23.7451 21.485 23.696 21.332 23.0611 20.8586C22.7897 20.6562 22.6988 20.6538 14.374 20.6322C7.53168 20.6145 5.90459 20.6352 5.6581 20.7431ZM22.2052 22.9856V23.7793H14.257H6.30886V22.9856V22.1919H14.257H22.2052V22.9856ZM28.8076 22.4354C28.6538 22.5889 28.5637 22.7923 28.5637 22.9856C28.5637 23.1789 28.6538 23.3823 28.8076 23.5358L29.0514 23.7793H31.743H34.4345L34.6783 23.5358C34.8321 23.3823 34.9222 23.1789 34.9222 22.9856C34.9222 22.7923 34.8321 22.5889 34.6783 22.4354L34.4345 22.1919H31.743H29.0514L28.8076 22.4354ZM36.7558 22.4354C36.602 22.5889 36.5119 22.7923 36.5119 22.9856C36.5119 23.1789 36.602 23.3823 36.7558 23.5358C36.9976 23.7774 37.015 23.7793 38.8963 23.7793C40.7777 23.7793 40.7951 23.7774 41.0369 23.5358C41.1907 23.3823 41.2808 23.1789 41.2808 22.9856C41.2808 22.7923 41.1907 22.5889 41.0369 22.4354C40.7951 22.1939 40.7777 22.1919 38.8963 22.1919C37.015 22.1919 36.9976 22.1939 36.7558 22.4354ZM44.46 29.8944C44.46 30.6665 44.4082 31.4225 44.3392 31.6555C44.178 32.2005 43.355 33.0224 42.8092 33.1834C42.2149 33.3588 3.78512 33.3588 3.19079 33.1834C2.64505 33.0224 1.82202 32.2005 1.66077 31.6555C1.59182 31.4225 1.53996 30.6665 1.53996 29.8944V28.5417H23H44.46V29.8944ZM39.9351 30.3727C39.7813 30.5262 39.6911 30.7296 39.6911 30.9229C39.6911 31.1162 39.7813 31.3196 39.9351 31.4731C40.0888 31.6266 40.2924 31.7166 40.486 31.7166C40.6795 31.7166 40.8832 31.6266 41.0369 31.4731C41.1907 31.3196 41.2808 31.1162 41.2808 30.9229C41.2808 30.7296 41.1907 30.5262 41.0369 30.3727C40.8832 30.2192 40.6795 30.1292 40.486 30.1292C40.2924 30.1292 40.0888 30.2192 39.9351 30.3727ZM26.9741 35.6853V36.479H23H19.0259V35.6853V34.8915H23H26.9741V35.6853ZM30.0921 38.1871C30.5366 38.3183 31.5443 39.2284 31.5443 39.4986C31.5443 39.6383 30.6869 39.6539 23 39.6539C15.3131 39.6539 14.4557 39.6383 14.4557 39.4986C14.4557 39.2574 15.4585 38.3184 15.8467 38.1961C16.3657 38.0328 29.5407 38.0244 30.0921 38.1871Z" fill="#2E86AB"/>
</svg>
