<svg width="24" height="24" viewBox="0 0 24 24" fill="none" xmlns="http://www.w3.org/2000/svg">
<path fill-rule="evenodd" clip-rule="evenodd" d="M10.1105 3.0537C9.90935 3.12534 9.80678 3.20337 9.69775 3.36774L9.59922 3.5163L9.5813 5.75456L9.56337 7.99278L7.12534 8.73091C5.65862 9.17497 4.62805 9.50518 4.5386 9.55978C4.4509 9.61323 4.34789 9.72175 4.28762 9.82408L4.18537 9.99768L4.17565 14.7295L4.1659 19.4614H3.88689C3.41051 19.4614 3.10464 19.6765 3.01501 20.0747C2.9328 20.4397 3.1984 20.8655 3.56586 20.9578C3.69152 20.9894 5.78647 20.9999 11.9937 20.9999C20.9726 20.9999 20.4428 21.0118 20.7157 20.804C21.0102 20.5799 21.0881 20.1515 20.8919 19.8349C20.7296 19.5729 20.4931 19.4614 20.1002 19.4614H19.7995V11.6274C19.7995 5.98658 19.7883 3.74121 19.7594 3.60686C19.706 3.35847 19.4632 3.10644 19.2179 3.04483C18.9585 2.97964 10.2947 2.98809 10.1105 3.0537ZM18.2578 12.0013V19.4614H16.3038H14.3498V13.4314C14.3498 8.45333 14.3414 7.38127 14.3015 7.28624C14.1845 7.00784 13.8977 6.79774 13.6327 6.79631C13.5637 6.79592 12.9769 6.95657 12.3287 7.15332C11.6805 7.35003 11.136 7.51101 11.1187 7.51101C11.101 7.51101 11.0871 6.85685 11.0871 6.02616V4.54131H14.6725H18.2578V12.0013ZM12.8798 14.0429V19.4614H11.4834H10.0869L10.0761 17.9676L10.0653 16.4738L9.96475 16.303C9.69947 15.8526 9.09039 15.7859 8.7434 16.1692C8.67446 16.2454 8.60092 16.3692 8.57998 16.4444C8.55607 16.5303 8.54187 17.1164 8.54176 18.0212L8.54155 19.4614H7.1252H5.70885L5.71795 15.0895L5.72706 10.7177L9.27654 9.65631C11.2288 9.07257 12.8381 8.60156 12.8529 8.60965C12.8677 8.61777 12.8798 11.0627 12.8798 14.0429Z" fill="white" stroke="white" stroke-width="0.5"/>
</svg>
