<svg width="39" height="37" viewBox="0 0 39 37" fill="none" xmlns="http://www.w3.org/2000/svg">
<path d="M8.75321 18.523L4.3766 22.6952L0 18.523L4.3766 14.3506L8.75321 18.523ZM19.4302 4.17224L29 13.5239L31.3095 11.3705L23.8068 4.17224L19.4302 0L15.0536 4.17224L7.50276 11.3705L9.86038 13.5239L19.4302 4.17224ZM34.4838 14.3506L30.1073 18.523L34.4838 22.6952L38.8604 18.523L34.4838 14.3506ZM19.4302 32.8279L9.86038 23.5702L7.50276 25.6753L15.0055 32.8279L19.3821 37L23.7587 32.8279L31.3095 25.6753L29 23.5702L19.4302 32.8279ZM19.4302 22.6952L23.8068 18.523L19.4302 14.3506L15.0536 18.523L19.4302 22.6952Z" fill="url(#paint0_linear_1269_347)"/>
<defs>
<linearGradient id="paint0_linear_1269_347" x1="19.4302" y1="0" x2="19.4302" y2="37" gradientUnits="userSpaceOnUse">
<stop stop-color="#C35801"/>
<stop offset="1" stop-color="#F4BF28"/>
</linearGradient>
</defs>
</svg>
