<svg width="38" height="38" viewBox="0 0 38 38" fill="none" xmlns="http://www.w3.org/2000/svg">
<g clip-path="url(#clip0_1269_86)">
<path d="M8.16406 9.35156C7.75438 9.35156 7.42188 9.68406 7.42188 10.0938C7.42188 10.5034 7.75438 10.8359 8.16406 10.8359C8.57375 10.8359 8.90625 10.5034 8.90625 10.0938C8.90625 9.68406 8.57375 9.35156 8.16406 9.35156Z" fill="#C75F04"/>
<path d="M34.9515 15.6989L33.8776 13.5511C33.4979 12.7917 32.7348 12.32 31.8861 12.32H25.6786V7.12493C25.6786 5.89727 24.6799 4.89844 23.4522 4.89844H2.22649C0.998762 4.89844 0 5.8972 0 7.12493V26.421C0 27.6486 0.998762 28.6475 2.22649 28.6475H4.45298C4.45298 29.787 4.88382 30.8277 5.59045 31.6161H0.742188C0.332277 31.6161 0 31.9484 0 32.3583C0 32.7681 0.332277 33.1005 0.742188 33.1005H37.2563C37.6662 33.1005 37.9985 32.7681 37.9985 32.3583C37.9985 31.9484 37.6662 31.6161 37.2563 31.6161H35.3767C36.0834 30.8276 36.5141 29.787 36.5141 28.6475C36.5141 28.6052 36.5121 28.5631 36.5109 28.5209C37.3764 28.2154 37.9984 27.3897 37.9984 26.421V22.3183C37.9984 21.4523 38.17 22.2608 34.9515 15.6989ZM33.829 16.7729L36.0555 21.2259H28.6473V16.7729H33.829ZM1.4843 22.7102H2.9686V24.1945H1.4843V22.7102ZM8.90588 31.6161C7.26898 31.6161 5.93728 30.2843 5.93728 28.6475C5.93728 28.4453 5.95732 28.2463 5.99739 28.0528C6.27653 26.6773 7.49973 25.6788 8.90588 25.6788C10.312 25.6788 11.5353 26.6772 11.8144 28.0528C11.8146 28.054 11.8148 28.0549 11.815 28.056C11.8545 28.2463 11.8745 28.4453 11.8745 28.6475C11.8745 30.2844 10.5428 31.6161 8.90588 31.6161ZM8.90588 24.1945C7.00432 24.1945 5.32616 25.4127 4.70747 27.1631H2.22649C1.81725 27.1631 1.4843 26.8302 1.4843 26.4209V25.6787H3.71079C4.1207 25.6787 4.45298 25.3464 4.45298 24.9365V21.9679C4.45298 21.5581 4.1207 21.2257 3.71079 21.2257H1.4843V7.12493C1.4843 6.71568 1.81725 6.38274 2.22649 6.38274H23.4522C23.8614 6.38274 24.1943 6.71568 24.1943 7.12493C24.1943 7.67704 24.1943 25.3833 24.1943 27.1632H13.1039C12.4841 25.4118 10.8066 24.1945 8.90588 24.1945ZM12.2213 31.6161C12.928 30.8276 13.3588 29.787 13.3588 28.6475C13.9286 28.6475 27.3656 28.6475 27.6082 28.6475C27.6082 29.787 28.039 30.8277 28.7457 31.6161H12.2213ZM32.0612 31.6161C30.4243 31.6161 29.0926 30.2843 29.0926 28.6475C29.0926 28.4453 29.1126 28.2463 29.1527 28.0528C29.4318 26.6773 30.655 25.6788 32.0612 25.6788C33.4673 25.6788 34.6906 26.6772 34.9697 28.0528C34.9699 28.054 34.9701 28.0549 34.9703 28.056C35.0098 28.2463 35.0298 28.4453 35.0298 28.6475C35.0298 30.2844 33.6981 31.6161 32.0612 31.6161ZM36.5141 26.421C36.5141 26.6678 36.3925 26.8863 36.2066 27.0213C35.5482 25.3463 33.9102 24.1946 32.0612 24.1946C30.1596 24.1946 28.4814 25.4127 27.8628 27.1632H25.6786V13.8043H31.886C32.1689 13.8043 32.4233 13.9617 32.5499 14.2148L33.0868 15.2886H27.9051C27.4952 15.2886 27.1629 15.621 27.1629 16.0308V21.9681C27.1629 22.3779 27.4952 22.7103 27.9051 22.7103H36.5141V26.421Z" fill="#C75F04"/>
<path d="M20.484 9.35156H11.1328C10.7229 9.35156 10.3906 9.68391 10.3906 10.0938C10.3906 10.5036 10.7229 10.8359 11.1328 10.8359H20.484C20.8939 10.8359 21.2262 10.5036 21.2262 10.0938C21.2262 9.68391 20.8938 9.35156 20.484 9.35156Z" fill="#C75F04"/>
<path d="M20.4842 12.3203H14.1016C13.6917 12.3203 13.3594 12.6527 13.3594 13.0625C13.3594 13.4723 13.6917 13.8047 14.1016 13.8047H20.4842C20.8941 13.8047 21.2263 13.4723 21.2263 13.0625C21.2263 12.6527 20.894 12.3203 20.4842 12.3203Z" fill="#C75F04"/>
<path d="M32.0605 27.1641C31.242 27.1641 30.5762 27.83 30.5762 28.6484C30.5762 29.4668 31.2421 30.1327 32.0605 30.1327C32.879 30.1327 33.5448 29.4668 33.5448 28.6484C33.5448 27.8299 32.879 27.1641 32.0605 27.1641Z" fill="#C75F04"/>
<path d="M8.90618 27.1641C8.08769 27.1641 7.42188 27.83 7.42188 28.6484C7.42188 29.4668 8.08777 30.1327 8.90618 30.1327C9.72466 30.1327 10.3905 29.4668 10.3905 28.6484C10.3905 27.8299 9.72466 27.1641 8.90618 27.1641Z" fill="#C75F04"/>
</g>
<defs>
<clipPath id="clip0_1269_86">
<rect width="38" height="38" fill="white"/>
</clipPath>
</defs>
</svg>
