<svg width="31" height="31" viewBox="0 0 31 31" fill="none" xmlns="http://www.w3.org/2000/svg">
<path d="M27.0039 2.42188H24.2188V0.96875C24.2188 0.433758 23.7851 0 23.25 0C22.7149 0 22.2812 0.433758 22.2812 0.96875V2.42188H8.71875V0.96875C8.71875 0.433758 8.28505 0 7.75 0C7.21495 0 6.78125 0.433758 6.78125 0.96875V2.42188H3.99609C1.79261 2.42188 0 4.21449 0 6.41797V27.0039C0 29.2074 1.79261 31 3.99609 31H27.0039C29.2074 31 31 29.2074 31 27.0039V6.41797C31 4.21449 29.2074 2.42188 27.0039 2.42188ZM3.99609 4.35938H6.78125V5.32812C6.78125 5.86312 7.21495 6.29688 7.75 6.29688C8.28505 6.29688 8.71875 5.86312 8.71875 5.32812V4.35938H22.2812V5.32812C22.2812 5.86312 22.7149 6.29688 23.25 6.29688C23.7851 6.29688 24.2188 5.86312 24.2188 5.32812V4.35938H27.0039C28.139 4.35938 29.0625 5.28284 29.0625 6.41797V8.71875H1.9375V6.41797C1.9375 5.28284 2.86096 4.35938 3.99609 4.35938ZM27.0039 29.0625H3.99609C2.86096 29.0625 1.9375 28.139 1.9375 27.0039V10.6562H29.0625V27.0039C29.0625 28.139 28.139 29.0625 27.0039 29.0625Z" fill="#D2770D"/>
<path d="M8.43425 24.0015V22.7415L11.8503 19.2555C12.6809 18.4249 13.0963 17.7062 13.0963 17.0995C13.0963 16.6235 12.9516 16.2549 12.6623 15.9935C12.3823 15.7229 12.0229 15.5875 11.5842 15.5875C10.7629 15.5875 10.1563 15.9935 9.76425 16.8055L8.40625 16.0075C8.71425 15.3542 9.14825 14.8595 9.70825 14.5235C10.2683 14.1875 10.8889 14.0195 11.5703 14.0195C12.4289 14.0195 13.1662 14.2902 13.7822 14.8315C14.3983 15.3729 14.7063 16.1102 14.7063 17.0435C14.7063 18.0422 14.1509 19.1062 13.0402 20.2355L10.8282 22.4475H14.8882V24.0015H8.43425Z" fill="#D2770D"/>
<path d="M22.5117 22.7975C21.8397 23.7215 20.897 24.1835 19.6837 24.1835C18.4704 24.1835 17.523 23.7215 16.8417 22.7975C16.1697 21.8735 15.8337 20.6415 15.8337 19.1015C15.8337 17.5615 16.1697 16.3295 16.8417 15.4055C17.523 14.4815 18.4704 14.0195 19.6837 14.0195C20.897 14.0195 21.8397 14.4815 22.5117 15.4055C23.193 16.3295 23.5337 17.5615 23.5337 19.1015C23.5337 20.6415 23.193 21.8735 22.5117 22.7975ZM19.6837 22.6155C20.4117 22.6155 20.967 22.3122 21.3497 21.7055C21.7324 21.0989 21.9237 20.2309 21.9237 19.1015C21.9237 17.9722 21.7324 17.1042 21.3497 16.4975C20.967 15.8909 20.4117 15.5875 19.6837 15.5875C18.965 15.5875 18.4097 15.8909 18.0177 16.4975C17.635 17.1042 17.4437 17.9722 17.4437 19.1015C17.4437 20.2309 17.635 21.0989 18.0177 21.7055C18.4097 22.3122 18.965 22.6155 19.6837 22.6155Z" fill="#D2770D"/>
</svg>
