<svg width="49" height="49" viewBox="0 0 49 49" fill="none" xmlns="http://www.w3.org/2000/svg">
<path d="M11.9511 10.372C12.0787 10.4996 12.2459 10.5635 12.413 10.5635C12.5801 10.5635 12.7474 10.4996 12.8749 10.372L13.393 9.85394L13.9111 10.372C14.0387 10.4996 14.2059 10.5635 14.373 10.5635C14.5401 10.5635 14.7074 10.4996 14.8349 10.372C15.0901 10.1169 15.0901 9.70335 14.8349 9.44822L14.3168 8.93013L14.8349 8.41203C15.0901 8.15691 15.0901 7.74335 14.8349 7.48822C14.5798 7.23309 14.1662 7.23309 13.9111 7.48822L13.393 8.00631L12.8749 7.48822C12.6198 7.23309 12.2062 7.23309 11.9511 7.48822C11.696 7.74335 11.696 8.15691 11.9511 8.41203L12.4692 8.93013L11.9511 9.44822C11.696 9.70335 11.696 10.1167 11.9511 10.372Z" fill="#D2770D"/>
<path d="M39.2002 11.8692C40.281 11.8692 41.1602 10.99 41.1602 9.90922C41.1602 8.82844 40.281 7.94922 39.2002 7.94922C38.1195 7.94922 37.2402 8.82844 37.2402 9.90922C37.2402 10.99 38.1195 11.8692 39.2002 11.8692ZM39.2002 9.25589C39.5604 9.25589 39.8536 9.54907 39.8536 9.90922C39.8536 10.2694 39.5604 10.5626 39.2002 10.5626C38.8401 10.5626 38.5469 10.2694 38.5469 9.90922C38.5469 9.54907 38.8401 9.25589 39.2002 9.25589Z" fill="#D2770D"/>
<path d="M20.9072 9.90823C21.2681 9.90823 21.5606 9.61572 21.5606 9.2549C21.5606 8.89407 21.2681 8.60156 20.9072 8.60156C20.5464 8.60156 20.2539 8.89407 20.2539 9.2549C20.2539 9.61572 20.5464 9.90823 20.9072 9.90823Z" fill="#D2770D"/>
<path d="M34.626 13.8301C34.9868 13.8301 35.2793 13.5376 35.2793 13.1768C35.2793 12.8159 34.9868 12.5234 34.626 12.5234C34.2652 12.5234 33.9727 12.8159 33.9727 13.1768C33.9727 13.5376 34.2652 13.8301 34.626 13.8301Z" fill="#D2770D"/>
<path d="M45.0384 23.931L43.012 18.5273C42.91 18.2558 42.6398 18.0852 42.3536 18.1049L33.1946 18.7592L32.0545 17.6192C31.932 17.4967 31.7657 17.4277 31.5926 17.4277H29.3615L28.835 15.848C28.7891 15.7101 28.6985 15.5919 28.5776 15.5112L26.5513 14.1603C26.3458 14.0231 26.0794 14.0144 25.8648 14.1366L21.1365 16.8386C20.933 16.9547 20.8072 17.1713 20.8072 17.4059V20.03L16.8246 19.4612C16.7939 19.4568 16.7631 19.4546 16.7322 19.4546H12.0035C11.9251 19.4546 11.8475 19.4686 11.7742 19.496L6.37016 21.5224C6.05689 21.6401 5.88311 21.9749 5.96722 22.2988L7.13032 26.7637L5.39327 29.1837C5.2711 29.3537 5.23794 29.5722 5.30425 29.7713L5.85207 31.4146L4.11127 33.1554C3.97276 33.2939 3.90383 33.4868 3.92311 33.6819C3.94222 33.8764 4.04789 34.0526 4.2109 34.1611L6.23721 35.512C6.34436 35.5836 6.47078 35.6218 6.59965 35.6218H11.328C11.4505 35.6218 11.5704 35.5873 11.6741 35.5226L16.9192 32.2445H20.435L22.646 35.5607L20.3226 37.8841C20.1238 38.0829 20.0743 38.3865 20.2001 38.6382L21.551 41.3402C21.6324 41.5029 21.7782 41.6244 21.9527 41.6752C22.0126 41.6927 22.0742 41.7014 22.1354 41.7014C22.2529 41.7014 22.369 41.6698 22.4717 41.6083L25.8491 39.582C25.9713 39.5086 26.0664 39.3969 26.1196 39.2646L27.3064 36.2975H31.7224L31.0487 37.3084C30.8609 37.5904 30.9195 37.9694 31.1843 38.1809L34.5617 40.8826C34.7836 41.0606 35.0958 41.0737 35.3321 40.9161L39.3851 38.2144C39.5477 38.1059 39.6537 37.9298 39.6729 37.7351C39.692 37.5403 39.623 37.3472 39.4847 37.2087L38.2087 35.9328L37.1159 33.7465L42.1866 28.6759C42.2705 28.5922 42.3298 28.4874 42.3585 28.3726L42.973 25.9155L44.7891 24.7046C45.0415 24.5357 45.1448 24.2154 45.0384 23.931ZM35.8587 33.1553C35.6599 33.3541 35.6104 33.6577 35.7362 33.9094L37.0871 36.6114C37.1186 36.6743 37.1598 36.7313 37.2096 36.7811L37.9969 37.5687L35.0046 39.5632L32.4682 37.5342L33.4868 36.0059C33.6204 35.8055 33.6329 35.5478 33.5193 35.3355C33.4054 35.123 33.1839 34.9903 32.9432 34.9903H26.8638C26.5967 34.9903 26.3563 35.153 26.257 35.4009L24.9879 38.5745L22.4043 40.1245L21.5793 38.4746L23.9483 36.1056C24.1684 35.8854 24.2029 35.5403 24.0299 35.2812L21.3279 31.2286C21.2067 31.0468 21.0029 30.9377 20.7843 30.9377H16.7317C16.6092 30.9377 16.4893 30.9722 16.3856 31.0368L11.1405 34.3149H6.79728L5.59874 33.5158L7.06139 32.0528C7.23649 31.878 7.29741 31.619 7.21933 31.3841L6.64963 29.6745L8.17516 27.5489H23.5198V30.8155C23.5198 31.1763 23.8124 31.4689 24.1732 31.4689H35.2798C35.6406 31.4689 35.9332 31.1763 35.9332 30.8155V27.5489H41.2173L41.1347 27.8793L35.8587 33.1553ZM24.8263 30.1624V23.629H34.6263V30.1624H24.8263ZM42.0376 24.9679C41.9024 25.0582 41.8057 25.1954 41.7661 25.3528L41.5438 26.2422H35.933V22.9755C35.933 22.6147 35.6405 22.3222 35.2797 22.3222H24.173C23.8122 22.3222 23.5197 22.6147 23.5197 22.9755V26.2422H8.3447L7.38006 22.5391L12.1218 20.7609H16.6852L21.3676 21.4296C21.5558 21.4577 21.7451 21.4005 21.8883 21.2764C22.0312 21.1522 22.1135 20.9724 22.1135 20.7829V17.7846L26.1621 15.4712L27.6659 16.4739L28.2704 18.2877C28.3594 18.5544 28.6088 18.7343 28.8902 18.7343H31.3218L32.4814 19.8939C32.6151 20.0279 32.797 20.0947 32.9899 20.0837L41.9598 19.4431L43.6327 23.9041L42.0376 24.9679Z" fill="#D2770D"/>
<path d="M32.6661 24.2852H31.3594C31.0401 24.2852 30.7673 24.5161 30.7151 24.831L30.0617 28.751C30.0024 29.1071 30.2429 29.4435 30.5986 29.503C30.9591 29.5642 31.2915 29.3215 31.3506 28.9661L31.4773 28.2053H32.5483L32.6751 28.9661C32.7283 29.2854 33.005 29.512 33.3188 29.512C33.3542 29.512 33.3905 29.509 33.4269 29.503C33.7826 29.4437 34.0231 29.1071 33.9638 28.751L33.3104 24.831C33.2582 24.5161 32.9856 24.2852 32.6661 24.2852ZM31.6952 26.8985L31.9129 25.5918H32.1127L32.3304 26.8985H31.6952Z" fill="#D2770D"/>
<path d="M28.7473 24.2852C28.3865 24.2852 28.094 24.5777 28.094 24.9385V27.992C28.094 28.1094 27.9982 28.2052 27.8808 28.2052H27.0003C26.8828 28.2052 26.7871 28.1094 26.7871 27.992V24.9385C26.7871 24.5777 26.4946 24.2852 26.1338 24.2852C25.773 24.2852 25.4805 24.5777 25.4805 24.9385V27.992C25.4805 28.8301 26.1622 29.5118 27.0003 29.5118H27.8808C28.7189 29.5118 29.4006 28.8301 29.4006 27.992V24.9385C29.4006 24.5777 29.1081 24.2852 28.7473 24.2852Z" fill="#D2770D"/>
</svg>
