<svg width="20" height="20" viewBox="0 0 20 20" fill="none" xmlns="http://www.w3.org/2000/svg">
<path d="M7.26475 0H1.52269C0.683028 0 0 0.683028 0 1.52269V7.26476C0 8.10442 0.683028 8.78745 1.52269 8.78745H7.26475C8.10441 8.78745 8.78744 8.10442 8.78744 7.26476V1.52269C8.7873 0.683028 8.10441 0 7.26475 0Z" fill="#CE7B1E"/>
<path d="M18.4776 0H12.7356C11.8959 0 11.2129 0.683028 11.2129 1.52269V7.26476C11.2129 8.10442 11.8959 8.78745 12.7356 8.78745H18.4776C19.3173 8.78745 20.0003 8.10442 20.0003 7.26476V1.52269C20.0003 0.683028 19.3173 0 18.4776 0Z" fill="#CE7B1E"/>
<path d="M7.26475 11.2109H1.52269C0.683028 11.2109 0 11.8939 0 12.7336V18.4756C0 19.3153 0.683028 19.9983 1.52269 19.9983H7.26475C8.10441 19.9983 8.78744 19.3153 8.78744 18.4756V12.7336C8.7873 11.8939 8.10441 11.2109 7.26475 11.2109Z" fill="#CE7B1E"/>
<path d="M18.4776 11.2109H12.7356C11.8959 11.2109 11.2129 11.894 11.2129 12.7336V18.4757C11.2129 19.3154 11.8959 19.9984 12.7356 19.9984H18.4776C19.3173 19.9983 20.0003 19.3153 20.0003 18.4756V12.7336C20.0003 11.8939 19.3173 11.2109 18.4776 11.2109Z" fill="#CE7B1E"/>
</svg>
