<svg width="33" height="33" viewBox="0 0 33 33" fill="none" xmlns="http://www.w3.org/2000/svg">
<path d="M10.6322 21.3362H10.6338C10.635 21.3362 10.6363 21.3359 10.6375 21.3359H28.166C28.5975 21.3359 28.977 21.0497 29.0956 20.6348L32.9627 7.0996C33.0461 6.8078 32.9877 6.49409 32.8051 6.25189C32.6223 6.00969 32.3366 5.86719 32.0332 5.86719H8.40257L7.71146 2.75707C7.61302 2.31471 7.22076 2 6.76758 2H0.966797C0.432793 2 0 2.43279 0 2.9668C0 3.5008 0.432793 3.93359 0.966797 3.93359H5.99213C6.11449 4.48472 9.29938 18.817 9.48267 19.6415C8.45519 20.0882 7.73438 21.1126 7.73438 22.3027C7.73438 23.902 9.03552 25.2031 10.6348 25.2031H28.166C28.7 25.2031 29.1328 24.7703 29.1328 24.2363C29.1328 23.7023 28.7 23.2695 28.166 23.2695H10.6348C10.1018 23.2695 9.66797 22.8357 9.66797 22.3027C9.66797 21.7705 10.1003 21.3374 10.6322 21.3362ZM30.7514 7.80078L27.4366 19.4023H11.4102L8.83209 7.80078H30.7514Z" fill="black"/>
<path d="M9.66797 28.0996C9.66797 29.6989 10.9691 31 12.5684 31C14.1676 31 15.4688 29.6989 15.4688 28.0996C15.4688 26.5004 14.1676 25.1992 12.5684 25.1992C10.9691 25.1992 9.66797 26.5004 9.66797 28.0996ZM12.5684 27.1328C13.1014 27.1328 13.5352 27.5666 13.5352 28.0996C13.5352 28.6326 13.1014 29.0664 12.5684 29.0664C12.0354 29.0664 11.6016 28.6326 11.6016 28.0996C11.6016 27.5666 12.0354 27.1328 12.5684 27.1328Z" fill="black"/>
<path d="M23.332 28.0996C23.332 29.6989 24.6332 31 26.2324 31C27.8317 31 29.1328 29.6989 29.1328 28.0996C29.1328 26.5004 27.8317 25.1992 26.2324 25.1992C24.6332 25.1992 23.332 26.5004 23.332 28.0996ZM26.2324 27.1328C26.7654 27.1328 27.1992 27.5666 27.1992 28.0996C27.1992 28.6326 26.7654 29.0664 26.2324 29.0664C25.6994 29.0664 25.2656 28.6326 25.2656 28.0996C25.2656 27.5666 25.6994 27.1328 26.2324 27.1328Z" fill="black"/>
</svg>
