<svg width="338" height="329" viewBox="0 0 338 329" fill="none" xmlns="http://www.w3.org/2000/svg">
<path fill-rule="evenodd" clip-rule="evenodd" d="M194.437 0.281112C200.96 1.21084 207.551 2.56794 214.083 4.31813C302.966 28.1344 355.918 118.768 332.33 206.8C308.742 294.832 217.556 346.89 128.672 323.074C122.141 321.323 115.754 319.203 109.64 316.747C191.964 328.67 271.802 277.98 293.652 196.436C315.501 114.892 271.705 31.0747 194.437 0.281112ZM4.34776 140.37C21.7207 75.533 88.6819 37.2092 153.914 54.6882C216.799 71.538 255.153 134.172 242.241 196.705C237.982 147.024 203.064 102.99 151.834 89.2629C86.6013 71.7839 19.6288 110.15 2.26724 174.944C1.65367 177.234 1.13687 179.505 0.662719 181.786C-0.513444 168.245 0.632288 154.236 4.34776 140.37ZM50.0319 50.3047C84.3608 16.9627 134.581 2.01333 183.889 15.2255C258.685 35.2669 302.953 112.712 282.74 188.15C271.968 228.349 245.029 259.899 210.875 277.562C228.681 260.291 242.221 238.104 249.129 212.322C269.343 136.884 225.063 59.4813 150.267 39.4399C115.303 30.0713 79.8875 34.8527 50.0319 50.3047Z" fill="#D3D3D3"/>
</svg>
