<svg width="338" height="329" viewBox="0 0 338 329" fill="none" xmlns="http://www.w3.org/2000/svg">
<path fill-rule="evenodd" clip-rule="evenodd" d="M143.593 0.281112C137.07 1.21081 130.478 2.56794 123.947 4.31813C35.063 28.1344 -17.8888 118.768 5.69932 206.8C29.2874 294.832 120.473 346.89 209.357 323.074C215.889 321.323 222.276 319.203 228.389 316.747C146.065 328.67 66.2274 277.98 44.3778 196.436C22.5281 114.892 66.3247 31.0747 143.593 0.281112ZM333.682 140.37C316.309 75.533 249.347 37.2092 184.115 54.6882C121.23 71.538 82.8766 134.172 95.7885 196.705C100.047 147.024 134.966 102.99 186.195 89.2629C251.428 71.7839 318.4 110.15 335.762 174.944C336.376 177.234 336.892 179.505 337.367 181.786C338.543 168.245 337.397 154.236 333.682 140.37ZM287.997 50.3047C253.669 16.9627 203.449 2.01333 154.14 15.2255C79.3447 35.2669 35.076 112.712 55.2895 188.15C66.0609 228.349 93.0003 259.899 127.155 277.562C109.349 260.291 95.8082 238.104 88.9 212.322C68.6864 136.884 112.967 59.4813 187.762 39.4399C222.726 30.0713 258.142 34.8527 287.997 50.3047Z" fill="#D3D3D3"/>
</svg>
