<svg width="396" height="390" viewBox="0 0 396 390" fill="none" xmlns="http://www.w3.org/2000/svg">
<path fill-rule="evenodd" clip-rule="evenodd" d="M221.293 388.599C213.537 389.533 205.572 390 197.555 390C88.4542 390 0 302.734 0 195.026C0 87.3181 88.4542 0 197.555 0C205.572 0 213.537 0.466942 221.293 1.40082C123.354 12.9706 47.476 95.2561 47.476 195.026C47.476 294.796 123.354 377.081 221.293 388.599ZM396 170.537C396 249.866 331.074 314.096 251.004 314.096C173.817 314.096 110.673 254.328 106.271 178.994C126.393 234.405 179.895 273.991 242.777 273.991C322.847 273.991 387.773 209.709 387.773 130.432C387.773 127.631 387.668 124.881 387.511 122.131C393.013 137.229 396 153.572 396 170.537ZM371.319 287.325C342.236 335.887 289.31 368.313 228.786 368.313C136.978 368.313 62.5153 293.447 62.5153 201.148C62.5153 151.964 83.6856 107.708 117.38 77.0972C102.288 102.26 93.5895 131.729 93.5895 163.274C93.5895 255.573 168.052 330.387 259.86 330.387C302.777 330.387 341.869 314.096 371.319 287.325Z" fill="#CE7B1E"/>
</svg>
