<svg width="46" height="44" viewBox="0 0 46 44" fill="none" xmlns="http://www.w3.org/2000/svg">
<path fill-rule="evenodd" clip-rule="evenodd" d="M21.5633 0.0920205C18.8411 0.368749 15.8595 1.37962 13.5729 2.80118C12.4313 3.51088 10.929 4.69955 10.7174 5.06038C10.4235 5.56181 10.7208 6.2265 11.2866 6.33261C11.699 6.41006 11.8975 6.3124 12.7376 5.61869C14.7585 3.95005 17.455 2.66308 19.9909 2.15688C23.0612 1.54395 25.8077 1.69974 28.7783 2.65535C29.8599 3.00324 30.1618 2.99722 30.457 2.62193C30.6948 2.31969 30.6935 1.79264 30.4543 1.4886C30.3176 1.31475 29.9917 1.16479 29.174 0.899295C26.7726 0.119783 24.0898 -0.164852 21.5633 0.0920205ZM33.0188 2.49615C31.9548 2.77198 31.3091 3.61016 31.3152 4.70746C31.3193 5.44744 31.5223 5.91141 32.041 6.36693C32.5066 6.77565 32.8751 6.90907 33.5325 6.90673C34.2531 6.90422 34.7165 6.69577 35.1852 6.16325C35.9128 5.33666 35.954 4.16532 35.2862 3.28985C34.8369 2.70073 33.7275 2.31241 33.0188 2.49615ZM39.516 2.79875C39.2128 2.93918 31.8272 11.4286 31.6549 11.8347C31.5418 12.1014 31.5455 12.1692 31.6894 12.4637C31.8853 12.8644 32.2481 13.0565 32.6621 12.9788C32.925 12.9294 33.4532 12.3589 36.7533 8.55992C38.8373 6.16064 40.6023 4.07799 40.6753 3.93172C41.0151 3.25041 40.2196 2.47305 39.516 2.79875ZM33.7978 4.362C34.1241 4.65723 33.9514 5.11177 33.5129 5.11177C33.056 5.11177 32.892 4.6133 33.2634 4.35319C33.5156 4.17646 33.5942 4.17772 33.7978 4.362ZM8.52854 7.53072C7.84903 8.21023 8.56322 9.33583 9.44265 8.97159C9.80042 8.82344 9.99098 8.52191 9.99098 8.1043C9.99098 7.84168 9.92989 7.71374 9.71102 7.51823C9.32396 7.17241 8.88218 7.17708 8.52854 7.53072ZM19.1823 8.25147C19.0835 8.29199 18.9218 8.4149 18.8229 8.52461C18.653 8.71338 18.6418 8.8707 18.617 11.4103L18.5908 14.0965H14.96C12.3363 14.0965 11.2638 14.1262 11.0936 14.2038C10.6013 14.4281 10.6019 14.4212 10.6019 19.348V23.8898H9.61363H8.62531V23.2114C8.62531 22.0964 8.28686 21.7335 7.24706 21.7335H6.76152L6.70402 21.3741C6.45119 19.7928 6.46844 17.3848 6.74364 15.8438C6.91336 14.8935 7.29108 13.5593 7.65442 12.6264C8.21561 11.1854 8.21731 11.1784 8.08686 10.8635C7.88326 10.372 7.18228 10.1659 6.74805 10.4701C6.52612 10.6255 6.26179 11.1618 5.82424 12.3445C4.98049 14.6251 4.57618 17.51 4.75928 19.9436C4.81014 20.6192 4.87662 21.2962 4.90699 21.4481L4.96225 21.7244L2.74312 21.7514L0.524077 21.7784L0.261994 22.0718L0 22.3653V30.4908C0 36.5991 0.0266846 38.6747 0.107367 38.8518C0.327402 39.3348 0.401526 39.3435 4.35174 39.3435H7.99351L8.28191 39.0858C8.54076 38.8545 8.57428 38.7668 8.60833 38.2322L8.64624 37.6364H10.3585H12.0708L14.2788 38.5012C15.4933 38.9769 18.3872 40.1134 20.7097 41.0268C25.8826 43.0612 26.6495 43.3394 27.5485 43.5075C29.3918 43.8522 30.7401 43.7788 32.9892 43.2114C40.7839 41.2448 43.4257 40.5489 43.8453 40.3515C44.7942 39.9054 45.6556 38.804 45.9063 37.7162C46.3113 35.9597 45.3728 34.0944 43.6845 33.2998C43.2495 33.0951 42.9494 33.0237 42.3817 32.9898C41.7136 32.95 41.4155 32.998 39.2182 33.4988C37.884 33.803 36.7014 34.0743 36.5902 34.1018C36.3898 34.1514 36.388 34.143 36.388 33.1725V32.1931L36.8032 31.7925C37.0315 31.5722 37.524 31.0281 37.8975 30.5834C40.0958 27.9661 41.5463 24.616 42.0118 21.0816C42.2744 19.0875 42.0588 15.3541 41.633 14.5259C41.3662 14.0066 40.6735 13.9302 40.2325 14.3711C39.9245 14.6791 39.9253 14.622 40.2032 16.4774C40.3769 17.6365 40.3779 19.6482 40.2055 20.9629C39.8369 23.775 38.7058 26.5654 37.029 28.7999L36.4329 29.5942L36.388 24.4079L36.3431 19.2217L36.094 18.9726L35.8451 18.7236L32.1183 18.6973L28.3916 18.6712V13.7264V8.78166L28.144 8.53404L27.8963 8.28633L25.1644 8.22649C21.648 8.14941 19.4089 8.15875 19.1823 8.25147ZM37.7011 9.10744C37.2611 9.26432 36.6865 9.81014 36.4692 10.278C36.2677 10.7115 36.2431 11.6345 36.4217 12.0619C36.5986 12.4853 37.0755 12.9976 37.5026 13.2231C38.0146 13.4933 38.9833 13.4946 39.4877 13.2257C40.2938 12.7959 40.7327 12.0906 40.7354 11.2214C40.74 9.63422 39.2114 8.56917 37.7011 9.10744ZM24.8282 10.0226L26.5947 10.0818V18.8726C26.5947 23.7075 26.5644 27.6629 26.5273 27.6623C26.4902 27.6617 25.1055 27.0997 23.4501 26.4134L20.4402 25.1656L20.4172 17.5646L20.3943 9.96351H21.7281C22.4616 9.96351 23.8567 9.9901 24.8282 10.0226ZM38.8592 10.9522C38.9945 11.1017 39.0045 11.1707 38.9187 11.359C38.7881 11.6457 38.5931 11.7216 38.314 11.5945C38.1574 11.5231 38.0951 11.4227 38.0951 11.2412C38.0951 10.7737 38.5439 10.6038 38.8592 10.9522ZM18.5983 20.1528V24.4121L17.9919 24.1534L17.3854 23.8946L14.8921 23.8922L12.3989 23.8898V19.8916V15.8934H15.4986H18.5983V20.1528ZM34.5911 27.5188V34.5621L33.9397 34.7124C31.7961 35.2068 31.2034 35.2988 30.1886 35.2944C29.6203 35.292 28.9936 35.2614 28.796 35.2265L28.4366 35.1631L28.4102 34.5175C28.3883 33.9789 28.4201 33.8005 28.6024 33.4406C28.9373 32.7793 29.1104 32.0941 29.1104 31.4301C29.1104 30.7721 28.865 29.8513 28.5732 29.4154C28.3989 29.155 28.3928 29.0012 28.3923 24.8706C28.3919 22.5193 28.4186 20.5684 28.4516 20.5355C28.4845 20.5026 29.8793 20.4756 31.5513 20.4756H34.5911V27.5188ZM6.80645 30.5609L6.82945 37.5465H4.31319H1.79694V30.537V23.5275L4.29019 23.5514L6.78345 23.5753L6.80645 30.5609ZM21.5326 27.5661C24.028 28.5999 26.2259 29.5492 26.417 29.6756C26.896 29.9925 27.2293 30.5927 27.2884 31.2447C27.4159 32.6505 26.4035 33.773 25.0082 33.773C24.5162 33.773 24.1926 33.6755 22.4427 32.9998C17.8194 31.2149 17.8917 31.2393 17.5563 31.35C17.159 31.4811 16.9811 31.7474 16.9811 32.2112C16.9811 32.4872 17.0368 32.6397 17.1921 32.7892C17.4525 33.0398 26.3615 36.479 27.583 36.8005C28.2296 36.9707 28.7526 37.0366 29.7393 37.0722C31.2835 37.1279 31.6684 37.0756 34.5012 36.426C35.6625 36.1596 37.7719 35.6761 39.1887 35.3515C40.6056 35.0269 41.9427 34.7613 42.1601 34.7613C43.056 34.7613 44.0092 35.577 44.1606 36.4734C44.2993 37.2944 43.9358 38.163 43.2648 38.6139C42.8493 38.8932 31.8294 41.7116 30.5611 41.8629C29.5751 41.9807 28.6747 41.9234 27.6033 41.6747C27.1944 41.5798 24.9909 40.7695 22.7067 39.8741C20.4224 38.9787 17.1708 37.7046 15.4811 37.0428L12.4088 35.8394H10.517H8.62531V30.7631V25.6867H12.8105H16.9956L21.5326 27.5661Z" fill="#2E86AB"/>
</svg>
