<svg width="46" height="46" viewBox="0 0 46 46" fill="none" xmlns="http://www.w3.org/2000/svg">
<path fill-rule="evenodd" clip-rule="evenodd" d="M9.57688 0.494085C9.28709 0.765864 7.12864 2.75483 4.78027 4.91393C2.43191 7.07313 0.395695 8.96083 0.255257 9.10878L0 9.37787V25.9955V42.6132L0.227875 42.841L0.455657 43.0689H11.8695H23.2833L24.0231 43.5785C25.5666 44.6417 27.5612 45.4621 29.4706 45.8191C30.8439 46.0759 33.201 46.0569 34.6002 45.7776C39.7454 44.7508 43.9285 40.9723 45.426 35.9988C45.8679 34.5313 45.9864 33.6713 45.9864 31.9304C45.9864 29.7211 45.6778 28.1987 44.8419 26.284C42.8355 21.688 38.2778 18.3679 33.3691 17.9265L32.7193 17.868L32.6729 9.11138L32.6265 0.354854L32.4074 0.177381C32.1943 0.00491953 31.8795 0 21.146 0H10.1037L9.57688 0.494085ZM31.165 9.67657L31.1414 17.868L30.4916 17.9265C24.891 18.4301 19.8915 22.6286 18.3478 28.1247C17.83 29.9682 17.7025 32.5768 18.0416 34.3901C18.4939 36.8094 19.5175 39.0012 21.087 40.9108L21.6401 41.5837H11.5626H1.48513V26.3611V11.1385H6.08394H10.6828L10.9106 10.9106L11.1385 10.6828V6.08394V1.48513H21.1636H31.1888L31.165 9.67657ZM21.5149 4.89416C20.0451 6.36073 18.8472 7.60332 18.8526 7.65558C18.8581 7.70784 19.0892 7.95651 19.3661 8.20824L19.8696 8.66594L20.3307 8.21176L20.7919 7.7575V9.22017C20.7919 10.6493 20.7971 10.688 21.0197 10.9106L21.2475 11.1385H24.5047H27.7619L27.9896 10.9106C28.2123 10.688 28.2175 10.6493 28.2175 9.22017V7.7575L28.6787 8.21176L29.1398 8.66594L29.6432 8.20824C29.9201 7.95651 30.1513 7.70784 30.1567 7.65558C30.1622 7.60332 28.9643 6.36073 27.4944 4.89416C25.0363 2.44128 24.7967 2.2277 24.5047 2.2277C24.2127 2.2277 23.9731 2.44128 21.5149 4.89416ZM9.62255 9.62236C9.60435 9.64056 7.85737 9.64455 5.7405 9.63118L1.89159 9.60695L5.74923 6.04588L9.60695 2.48472L9.63127 6.03697C9.64464 7.99076 9.64074 9.60417 9.62255 9.62236ZM25.6432 5.17615L26.7324 6.26819V7.96078V9.65336H24.5047H22.277V7.96078V6.26819L23.3661 5.17615C23.9652 4.57551 24.4776 4.08412 24.5047 4.08412C24.5318 4.08412 25.0442 4.57551 25.6432 5.17615ZM2.97027 15.5939V16.3365H10.0246H17.079V15.5939V14.8513H10.0246H2.97027V15.5939ZM18.5642 15.5939V16.3365H19.3067H20.0493V15.5939V14.8513H19.3067H18.5642V15.5939ZM2.97027 18.5642V19.3067H3.71283H4.4554V18.5642V17.8216H3.71283H2.97027V18.5642ZM5.94053 18.5642V19.3067H12.9949H20.0493V18.5642V17.8216H12.9949H5.94053V18.5642ZM34.3207 19.5358C38.1395 20.2807 41.4754 22.8196 43.2354 26.3208C43.6368 27.1195 44.1493 28.6367 44.3386 29.5875C44.5615 30.7059 44.5615 33.1548 44.3386 34.2732C43.6595 37.6827 41.6269 40.6888 38.7527 42.535C37.4344 43.3817 35.8261 44.0293 34.2732 44.3386C33.1205 44.5684 30.6955 44.5636 29.5634 44.3295C21.4193 42.6454 17.0421 34.0597 20.5133 26.5785C22.3036 22.7199 26.0206 20.0001 30.3154 19.406C31.1972 19.284 33.3949 19.3553 34.3207 19.5358ZM3.19814 21.0197L2.97027 21.2475V25.2473V29.247L3.19814 29.4748L3.42592 29.7027H7.42566H11.4254L11.6532 29.4748L11.8811 29.247V25.2473V21.2475L11.6532 21.0197L11.4254 20.7919H7.42566H3.42592L3.19814 21.0197ZM30.8165 20.8342C30.7399 20.8528 30.364 20.9187 29.9811 20.9807C26.6538 21.5191 23.5417 23.8457 21.9766 26.9644C21.1537 28.6043 20.8459 29.9383 20.8414 31.8839C20.838 33.397 20.9413 34.0991 21.3558 35.379C22.26 38.171 24.3209 40.554 26.9966 41.9014C27.7837 42.2978 29 42.7086 29.9347 42.8937C30.8948 43.0839 33.1732 43.0583 34.1581 42.8462C37.5199 42.1224 40.3574 39.9303 41.9013 36.8642C42.6832 35.3117 43.0224 33.8186 43.0224 31.9304C43.0224 30.4684 42.9137 29.7442 42.5049 28.4817C41.3048 24.7759 38.1832 21.9366 34.3437 21.0584C33.6243 20.8939 31.2047 20.7401 30.8165 20.8342ZM9.06738 22.3466C9.04539 22.3849 8.66361 23.0533 8.219 23.8317C7.77439 24.6102 7.39466 25.2473 7.37517 25.2473C7.35568 25.2473 7.16957 24.9966 6.96156 24.6903C6.75355 24.384 6.56178 24.1334 6.53533 24.1334C6.50887 24.1334 6.23589 24.3041 5.92865 24.5128C5.57556 24.7525 5.38797 24.939 5.41879 25.0196C5.4457 25.0896 5.80418 25.6491 6.21537 26.2629C6.76979 27.0905 7.02626 27.3949 7.20744 27.4403C7.74933 27.5763 7.86972 27.4408 9.07481 25.3387C9.70349 24.2418 10.2567 23.2818 10.3041 23.2052C10.3584 23.1174 10.3913 24.0172 10.3931 25.6417L10.3959 28.2175H7.42566H4.4554V25.2473V22.277H6.78139C8.06065 22.277 9.08938 22.3084 9.06738 22.3466ZM31.9341 23.7621H32.6729V23.035V22.3077L33.253 22.3865C34.8774 22.6071 36.6203 23.3545 37.9637 24.4064L38.1958 24.588L37.8013 24.9908C37.5843 25.2123 37.4068 25.4163 37.4068 25.4441C37.4068 25.5073 38.0443 26.1798 38.2697 26.3546C38.4193 26.4705 38.4802 26.4413 38.8546 26.0745L39.2727 25.665L39.4543 25.897C40.5062 27.2404 41.2536 28.9833 41.4742 30.6077L41.553 31.1878H40.8257H40.0986V31.9304V32.6729H40.8257H41.553L41.4742 33.2531C41.2536 34.8774 40.5062 36.6203 39.4543 37.9637L39.2727 38.1958L38.8699 37.8013C38.6484 37.5844 38.4285 37.4068 38.381 37.4068C38.2641 37.4068 37.4068 38.2582 37.4068 38.3744C37.4068 38.4254 37.5843 38.6484 37.8013 38.8699L38.1958 39.2727L37.9637 39.4543C36.6203 40.5063 34.8774 41.2537 33.253 41.4742L32.6729 41.553V40.8257V40.0986H31.9304H31.1878V40.8257V41.553L30.6077 41.4742C28.9833 41.2537 27.2404 40.5063 25.897 39.4543L25.6649 39.2727L26.0594 38.8699C26.2764 38.6484 26.4539 38.4285 26.4539 38.381C26.4539 38.2641 25.6025 37.4068 25.4863 37.4068C25.4353 37.4068 25.2123 37.5844 24.9908 37.8013L24.588 38.1958L24.4064 37.9637C23.3545 36.6203 22.6071 34.8774 22.3865 33.2531L22.3077 32.6729H23.035H23.7621V31.9304V31.1878H23.0354H22.3087L22.3903 30.5789C22.6048 28.9779 23.3513 27.2444 24.4064 25.897L24.588 25.665L25.0061 26.0745C25.3805 26.4413 25.4414 26.4705 25.591 26.3546C25.8304 26.169 26.4539 25.5056 26.4539 25.4363C26.4539 25.4041 26.2868 25.2146 26.0826 25.0152C25.8784 24.8158 25.7114 24.6282 25.7114 24.5985C25.7114 24.4809 26.7302 23.7933 27.5214 23.3769C28.4091 22.9098 29.6676 22.5048 30.5845 22.3912L31.1414 22.3221L31.1683 23.0421L31.1953 23.7621H31.9341ZM31.1878 28.7322V32.2173L31.4157 32.445C31.6434 32.6729 31.6437 32.6729 33.6434 32.6729H35.6432V31.9304V31.1878H34.1581H32.6729V28.2175V25.2473H31.9304H31.1878V28.7322ZM3.19814 31.4157L2.97027 31.6434V35.6432V39.6429L3.19814 39.8707L3.42592 40.0986H7.42566H11.4254L11.6532 39.8707L11.8811 39.6429V35.6432V31.6434L11.6532 31.4157L11.4254 31.1878H7.42566H3.42592L3.19814 31.4157ZM9.06738 32.7425C9.04539 32.7809 8.66361 33.4492 8.219 34.2277C7.77439 35.0062 7.39466 35.6432 7.37517 35.6432C7.35568 35.6432 7.16957 35.3926 6.96156 35.0863C6.75355 34.78 6.56178 34.5293 6.53533 34.5293C6.50887 34.5293 6.23589 34.7 5.92865 34.9087C5.57556 35.1485 5.38797 35.3349 5.41879 35.4155C5.4457 35.4855 5.80418 36.045 6.21537 36.6588C6.76979 37.4864 7.02626 37.7908 7.20744 37.8363C7.74933 37.9723 7.86972 37.8367 9.07481 35.7346C9.70349 34.6378 10.2567 33.6777 10.3041 33.6011C10.3584 33.5133 10.3913 34.4131 10.3931 36.0377L10.3959 38.6135H7.42566H4.4554V35.6432V32.6729H6.78139C8.06065 32.6729 9.08938 32.7042 9.06738 32.7425Z" fill="#2E86AB"/>
</svg>
