<svg width="40" height="40" viewBox="0 0 40 40" fill="none" xmlns="http://www.w3.org/2000/svg">
<path d="M13.3332 10.0003C13.3332 10.8844 12.982 11.7322 12.3569 12.3573C11.7317 12.9825 10.8839 13.3337 9.99984 13.3337C9.11578 13.3337 8.26794 12.9825 7.64281 12.3573C7.01769 11.7322 6.6665 10.8844 6.6665 10.0003C6.6665 9.11627 7.01769 8.26842 7.64281 7.6433C8.26794 7.01818 9.11578 6.66699 9.99984 6.66699C10.8839 6.66699 11.7317 7.01818 12.3569 7.6433C12.982 8.26842 13.3332 9.11627 13.3332 10.0003V10.0003ZM13.3332 20.0003C13.3332 20.8844 12.982 21.7322 12.3569 22.3573C11.7317 22.9825 10.8839 23.3337 9.99984 23.3337C9.11578 23.3337 8.26794 22.9825 7.64281 22.3573C7.01769 21.7322 6.6665 20.8844 6.6665 20.0003C6.6665 19.1163 7.01769 18.2684 7.64281 17.6433C8.26794 17.0182 9.11578 16.667 9.99984 16.667C10.8839 16.667 11.7317 17.0182 12.3569 17.6433C12.982 18.2684 13.3332 19.1163 13.3332 20.0003ZM9.99984 33.3337C10.8839 33.3337 11.7317 32.9825 12.3569 32.3573C12.982 31.7322 13.3332 30.8844 13.3332 30.0003C13.3332 29.1163 12.982 28.2684 12.3569 27.6433C11.7317 27.0182 10.8839 26.667 9.99984 26.667C9.11578 26.667 8.26794 27.0182 7.64281 27.6433C7.01769 28.2684 6.6665 29.1163 6.6665 30.0003C6.6665 30.8844 7.01769 31.7322 7.64281 32.3573C8.26794 32.9825 9.11578 33.3337 9.99984 33.3337V33.3337ZM23.3332 10.0003C23.3332 10.8844 22.982 11.7322 22.3569 12.3573C21.7317 12.9825 20.8839 13.3337 19.9998 13.3337C19.1158 13.3337 18.2679 12.9825 17.6428 12.3573C17.0177 11.7322 16.6665 10.8844 16.6665 10.0003C16.6665 9.11627 17.0177 8.26842 17.6428 7.6433C18.2679 7.01818 19.1158 6.66699 19.9998 6.66699C20.8839 6.66699 21.7317 7.01818 22.3569 7.6433C22.982 8.26842 23.3332 9.11627 23.3332 10.0003V10.0003ZM19.9998 23.3337C20.8839 23.3337 21.7317 22.9825 22.3569 22.3573C22.982 21.7322 23.3332 20.8844 23.3332 20.0003C23.3332 19.1163 22.982 18.2684 22.3569 17.6433C21.7317 17.0182 20.8839 16.667 19.9998 16.667C19.1158 16.667 18.2679 17.0182 17.6428 17.6433C17.0177 18.2684 16.6665 19.1163 16.6665 20.0003C16.6665 20.8844 17.0177 21.7322 17.6428 22.3573C18.2679 22.9825 19.1158 23.3337 19.9998 23.3337ZM23.3332 30.0003C23.3332 30.8844 22.982 31.7322 22.3569 32.3573C21.7317 32.9825 20.8839 33.3337 19.9998 33.3337C19.1158 33.3337 18.2679 32.9825 17.6428 32.3573C17.0177 31.7322 16.6665 30.8844 16.6665 30.0003C16.6665 29.1163 17.0177 28.2684 17.6428 27.6433C18.2679 27.0182 19.1158 26.667 19.9998 26.667C20.8839 26.667 21.7317 27.0182 22.3569 27.6433C22.982 28.2684 23.3332 29.1163 23.3332 30.0003V30.0003ZM29.9998 13.3337C30.8839 13.3337 31.7317 12.9825 32.3569 12.3573C32.982 11.7322 33.3332 10.8844 33.3332 10.0003C33.3332 9.11627 32.982 8.26842 32.3569 7.6433C31.7317 7.01818 30.8839 6.66699 29.9998 6.66699C29.1158 6.66699 28.2679 7.01818 27.6428 7.6433C27.0177 8.26842 26.6665 9.11627 26.6665 10.0003C26.6665 10.8844 27.0177 11.7322 27.6428 12.3573C28.2679 12.9825 29.1158 13.3337 29.9998 13.3337V13.3337ZM33.3332 20.0003C33.3332 20.8844 32.982 21.7322 32.3569 22.3573C31.7317 22.9825 30.8839 23.3337 29.9998 23.3337C29.1158 23.3337 28.2679 22.9825 27.6428 22.3573C27.0177 21.7322 26.6665 20.8844 26.6665 20.0003C26.6665 19.1163 27.0177 18.2684 27.6428 17.6433C28.2679 17.0182 29.1158 16.667 29.9998 16.667C30.8839 16.667 31.7317 17.0182 32.3569 17.6433C32.982 18.2684 33.3332 19.1163 33.3332 20.0003ZM29.9998 33.3337C30.8839 33.3337 31.7317 32.9825 32.3569 32.3573C32.982 31.7322 33.3332 30.8844 33.3332 30.0003C33.3332 29.1163 32.982 28.2684 32.3569 27.6433C31.7317 27.0182 30.8839 26.667 29.9998 26.667C29.1158 26.667 28.2679 27.0182 27.6428 27.6433C27.0177 28.2684 26.6665 29.1163 26.6665 30.0003C26.6665 30.8844 27.0177 31.7322 27.6428 32.3573C28.2679 32.9825 29.1158 33.3337 29.9998 33.3337V33.3337Z" fill="#B22532"/>
</svg>
